<mxfile host="drawio-plugin" modified="2024-10-16T02:10:06.283Z" agent="5.0 (Macintosh; Intel Mac OS X 10_15_7) AppleWebKit/537.36 (KHTML, like Gecko) Chrome/122.0.0.0 Safari/537.36" version="20.5.3" etag="VHE1ezEXzSeSEID_fJ1j" type="embed"><diagram id="YV3-773M-xt4cEGbmtXT" name="Page-1"><mxGraphModel dx="1136" dy="1567" grid="1" gridSize="10" guides="1" tooltips="1" connect="1" arrows="1" fold="1" page="1" pageScale="1" pageWidth="850" pageHeight="1100" math="0" shadow="0"><root><mxCell id="0"/><mxCell id="1" parent="0"/><mxCell id="16" value="" style="rounded=0;whiteSpace=wrap;html=1;shadow=0;" vertex="1" parent="1"><mxGeometry y="40" width="850" height="280" as="geometry"/></mxCell><mxCell id="14" value="" style="rounded=0;whiteSpace=wrap;html=1;shadow=0;" vertex="1" parent="1"><mxGeometry x="25" y="210" width="380" height="80" as="geometry"/></mxCell><mxCell id="5" style="edgeStyle=orthogonalEdgeStyle;rounded=0;orthogonalLoop=1;jettySize=auto;html=1;entryX=0;entryY=0.5;entryDx=0;entryDy=0;" edge="1" parent="1" source="2" target="3"><mxGeometry relative="1" as="geometry"/></mxCell><mxCell id="15" style="edgeStyle=orthogonalEdgeStyle;rounded=0;orthogonalLoop=1;jettySize=auto;html=1;entryX=0.5;entryY=0;entryDx=0;entryDy=0;" edge="1" parent="1" source="2" target="14"><mxGeometry relative="1" as="geometry"/></mxCell><mxCell id="2" value="Namespace" style="rounded=0;whiteSpace=wrap;html=1;" vertex="1" parent="1"><mxGeometry x="120" y="110" width="190" height="50" as="geometry"/></mxCell><mxCell id="6" style="edgeStyle=orthogonalEdgeStyle;rounded=0;orthogonalLoop=1;jettySize=auto;html=1;entryX=0;entryY=0.5;entryDx=0;entryDy=0;" edge="1" parent="1" source="3" target="4"><mxGeometry relative="1" as="geometry"/></mxCell><mxCell id="3" value="Namespace" style="rounded=0;whiteSpace=wrap;html=1;" vertex="1" parent="1"><mxGeometry x="370" y="110" width="190" height="50" as="geometry"/></mxCell><mxCell id="4" value="Namespace" style="rounded=0;whiteSpace=wrap;html=1;" vertex="1" parent="1"><mxGeometry x="620" y="110" width="190" height="50" as="geometry"/></mxCell><mxCell id="10" style="edgeStyle=orthogonalEdgeStyle;rounded=0;orthogonalLoop=1;jettySize=auto;html=1;entryX=0;entryY=0.5;entryDx=0;entryDy=0;" edge="1" parent="1" source="7" target="8"><mxGeometry relative="1" as="geometry"/></mxCell><mxCell id="7" value="Object" style="rounded=0;whiteSpace=wrap;html=1;" vertex="1" parent="1"><mxGeometry x="35" y="230" width="80" height="40" as="geometry"/></mxCell><mxCell id="11" style="edgeStyle=orthogonalEdgeStyle;rounded=0;orthogonalLoop=1;jettySize=auto;html=1;entryX=0;entryY=0.5;entryDx=0;entryDy=0;" edge="1" parent="1" source="8" target="9"><mxGeometry relative="1" as="geometry"/></mxCell><mxCell id="8" value="Object" style="rounded=0;whiteSpace=wrap;html=1;" vertex="1" parent="1"><mxGeometry x="175" y="230" width="80" height="40" as="geometry"/></mxCell><mxCell id="9" value="Object" style="rounded=0;whiteSpace=wrap;html=1;" vertex="1" parent="1"><mxGeometry x="315" y="230" width="80" height="40" as="geometry"/></mxCell><mxCell id="17" value="&lt;h1&gt;Container&lt;/h1&gt;" style="text;html=1;strokeColor=none;fillColor=none;spacing=5;spacingTop=-20;whiteSpace=wrap;overflow=hidden;rounded=0;shadow=0;" vertex="1" parent="1"><mxGeometry x="320" width="120" height="40" as="geometry"/></mxCell></root></mxGraphModel></diagram></mxfile>